<?xml version="1.0" encoding="UTF-8" standalone="no" ?>
<svg xmlns="http://www.w3.org/2000/svg" width="1600" height="1600" viewBox="0 0 160 160">
    <g>
        <defs>
            <filter id="blur1">
                <feGaussianBlur in="SourceGraphic" stdDeviation="1" />
            </filter>
        </defs>

        <circle fill="#fff" cx="80" cy="80" r="80" />
        <path fill="#ccc" d="M 0 0 L 5 -5 L 0 -70 L -5 -5 L 0 0" transform="translate(80, 80) rotate(0) scale(0.7)" filter="url(#blur1)"/>
        <path fill="#999" d="M 0 0 L 5 -5 L 0 -70 L -5 -5 L 0 0" transform="translate(80, 80) rotate(30) scale(0.7)" filter="url(#blur1)"/>
        <path fill="#555" d="M 0 0 L 5 -5 L 0 -70 L -5 -5 L 0 0" transform="translate(80, 80) rotate(60) scale(0.8)" filter="url(#blur1)"/>
        <path fill="#000" d="M 0 0 L 5 -5 L 0 -70 L -5 -5 L 0 0" transform="translate(80, 80) rotate(90) scale(0.9)"/>

    </g>
</svg>

