<svg xmlns="http://www.w3.org/2000/svg" xmlns:xlink="http://www.w3.org/1999/xlink" width="1000" height="1000" viewBox="0 0 100 100">
<defs>
  <linearGradient id="gradient-screen-border-outer" x1="0.2" y1="0" x2="0" y2="1">
    <stop offset="0" stop-color="#ddd"/>
    <stop offset="0.5" stop-color="#999"/>
    <stop offset="1" stop-color="#fff"/>
  </linearGradient>
  <linearGradient id="gradient-screen-border-inner" x1="0" y1="0" x2="1" y2="1">
    <stop offset="0" stop-color="#444"/>
    <stop offset="1" stop-color="#888"/>
  </linearGradient>
  <radialGradient id="gradient-screen" cx="0.5" cy="0.5" r="0.5">
    <stop offset="0.1" stop-color="#ccc"/>
    <stop offset="0.8" stop-color="#aaa"/>
    <stop offset="0.95" stop-color="#aaa"/>
    <stop offset="0.99" stop-color="#bbb"/>
    <stop offset="1" stop-color="#ccc"/>
  </radialGradient>
</defs>

<mask id="mask" mask-type="luminance">
<circle id="screen-border-outer"
  cx="50" cy="50" r="39.5" fill="url(#gradient-screen-border-outer)"
  stroke="white" stroke-width="0.1"
  />
<circle id="screen-border-inner"
  cx="50" cy="50" r="35" fill="url(#gradient-screen-border-inner)"
  stroke="#444" stroke-width="0.2"
  />

<circle id="screen"
  cx="50" cy="50" r="32" fill="url(#gradient-screen)"/>
<rect id="screen-light"
  x="25" y="40" width="50" height="25"
  fill="black"
  rx="2" ry="2"/>

<path
  id="time"
  transform="translate(32 62) scale(2)"
  d="m0 0h3v-9H0v8h1v-7h1v7H0zm4 0h3v-9H4v8h1v-7h1v7H4zm4-3h2v3h1v-7h-1v3H9v-3H8zm5 3v-6h-1v-1h2v7zm3 0V-3h1v-3h-2v-1h3v4h-1v3z"
  fill="white" />
</mask>

<g transform="translate(50 50) scale(0.7) translate(-50 -50)">
<rect width="100" height="100" fill="green" mask="url(#mask)" />
</g>
</svg>
