<svg xmlns="http://www.w3.org/2000/svg" xmlns:xlink="http://www.w3.org/1999/xlink" width="1000" height="1000" viewBox="0 0 100 100">
<defs>
  <linearGradient id="gradient-button-left" x1="0" y1="1" x2="1" y2="0">
    <stop offset="0" stop-color="#4c4b57"/>
    <stop offset="1" stop-color="#2d2e35"/>
  </linearGradient>
  <linearGradient id="gradient-button-right" x1="0" y1="1" x2="1" y2="0">
    <stop offset="0" stop-color="#4c4b57"/>
    <stop offset="1" stop-color="#292b2e"/>
  </linearGradient>
  <radialGradient id="gradient-body-edge" cx="0.55" cy="0.55" r="0.5">
    <stop offset="0" stop-color="#2b2e38"/>
    <stop offset="0.7" stop-color="#2b2e38"/>
    <stop offset="1" stop-color="#4c4b57"/>
  </radialGradient>
  <radialGradient id="gradient-body" cx="0.5" cy="0.5" r="0.5">
    <stop offset="0.8" stop-color="#1e2227"/>
    <stop offset="1" stop-color="#2b2e38"/>
  </radialGradient>
  <linearGradient id="gradient-screen-border-outer" x1="0.2" y1="0" x2="0" y2="1">
    <stop offset="0" stop-color="#202227"/>
    <stop offset="0.5" stop-color="#4c4b57"/>
    <stop offset="1" stop-color="#181b1f"/>
  </linearGradient>
  <linearGradient id="gradient-screen-border-inner" x1="0" y1="0" x2="1" y2="1">
    <stop offset="0" stop-color="#1e2227"/>
    <stop offset="1" stop-color="#2d2e35"/>
  </linearGradient>
  <radialGradient id="gradient-screen" cx="0.5" cy="0.5" r="0.5">
    <stop offset="0.1" stop-color="#2b2829"/>
    <stop offset="0.8" stop-color="#383436"/>
    <stop offset="0.98" stop-color="#383436"/>
    <stop offset="1" stop-color="#4c4b57"/>
  </radialGradient>
  <path id="body-shape" d="M 50 10
      C 66.57019 9.99602 66.57019 9.99602 78.2843 21.7157
      C 90.00398 33.42981 90.00398 33.42981 90 50
      C 90.00398 66.57019 90.00398 66.57019 78.2843 78.2843
      C 66.57019 90.00398 66.57019 90.00398 50 90
      C 33.42981 90.00398 33.42981 90.00398 21.7157 78.2843
      C 9.99602 66.57019 9.99602 66.57019 10 50
      C 9.99602 33.42981 9.99602 33.42981 21.7157 21.7157
      C 33.42981, 9.99602 33.42981, 9.99602 50 10
      Z" />
</defs>

<rect id="button-left"
  x="-10" y="5" width="20" height="10"
  rx="3" ry="3"
  transform="translate(12.5 12.5) rotate(-45)"
  fill="url(#gradient-button-left)"/>
<rect id="button-right"
  x="-10" y="5" width="20" height="10"
  rx="3" ry="3"
  transform="translate(87.4 12.5) rotate(45)"
  fill="url(#gradient-button-right)"/>

<use id="body-edge"
  xlink:href="#body-shape"
  transform="translate(50 50) scale(1.12) translate(-50 -50)"
  fill="url(#gradient-body-edge)"/>
<use id="body"
  xlink:href="#body-shape"
  transform="translate(50 50) scale(1.07) translate(-50 -50)"
  fill="url(#gradient-body)" stroke="#3b3e47" stroke-width="0.3"/>

<circle id="screen-border-outer"
  cx="50" cy="50" r="39.5" fill="url(#gradient-screen-border-outer)"
  stroke="#1e2227" stroke-width="0.2"
  />
<circle id="screen-border-inner"
  cx="50" cy="50" r="35" fill="url(#gradient-screen-border-inner)"
  stroke="#4c4b57" stroke-width="0.2"
  />

<circle id="screen"
  cx="50" cy="50" r="32" fill="url(#gradient-screen)"/>
<rect id="screen-light"
  x="25" y="40" width="50" height="25"
  fill="#99a29e"
  rx="2" ry="2"/>

<path
  id="time"
  transform="translate(32 62) scale(2)"
  d="m0 0h3v-9H0v8h1v-7h1v7H0zm4 0h3v-9H4v8h1v-7h1v7H4zm4-3h2v3h1v-7h-1v3H9v-3H8zm5 3v-6h-1v-1h2v7zm3 0V-3h1v-3h-2v-1h3v4h-1v3z"
  fill="#1a1d1c" />
</svg>
